<?xml version="1.0" standalone="no"?>
<!DOCTYPE svg PUBLIC "-//W3C//DTD SVG 20010904//EN"
 "http://www.w3.org/TR/2001/REC-SVG-20010904/DTD/svg10.dtd">
<svg version="1.0" xmlns="http://www.w3.org/2000/svg"
 width="80.000000pt" height="80.000000pt" viewBox="0 0 80.000000 80.000000"
 preserveAspectRatio="xMidYMid meet">
<metadata>
Created by potrace 1.11, written by Peter Selinger 2001-2013
</metadata>
<g transform="translate(0.000000,80.000000) scale(0.100000,-0.100000)"
fill="#000000" stroke="none">
<path d="M260 771 c-15 -29 -12 -46 10 -66 39 -35 96 17 70 65 -14 27 -65 27
-80 1z"/>
<path d="M319 599 c-179 -180 -197 -207 -167 -237 29 -29 55 -10 236 171 100
101 182 189 182 196 0 27 -22 51 -47 51 -20 0 -64 -39 -204 -181z"/>
<path d="M492 547 c-88 -89 -142 -151 -142 -164 0 -27 34 -56 57 -49 18 6 303
287 303 299 0 3 -4 17 -10 31 -7 20 -17 26 -38 26 -23 0 -54 -26 -170 -143z"/>
<path d="M87 592 c-42 -42 -77 -85 -77 -94 0 -33 12 -48 39 -48 20 0 46 20
104 76 42 42 77 85 77 94 0 35 -12 50 -39 50 -20 0 -46 -20 -104 -78z"/>
<path d="M482 307 c-133 -134 -242 -250 -242 -259 0 -23 27 -48 53 -48 30 0
497 473 497 504 0 28 -18 46 -45 46 -14 0 -102 -81 -263 -243z"/>
<path d="M26 301 c-37 -41 14 -97 60 -66 29 18 31 46 6 68 -24 22 -45 21 -66
-2z"/>
<path d="M676 271 c-38 -41 -44 -54 -38 -72 5 -12 19 -26 31 -31 18 -6 31 0
72 38 49 47 61 78 37 102 -24 24 -55 12 -102 -37z"/>
<path d="M260 302 c-25 -8 -160 -152 -160 -171 0 -20 14 -34 44 -45 24 -8 176
137 176 168 0 36 -28 58 -60 48z"/>
<path d="M492 84 c-24 -17 -29 -53 -10 -72 19 -19 55 -14 72 9 16 23 11 47
-13 66 -21 16 -22 16 -49 -3z"/>
</g>
</svg>
